<svg xmlns="http://www.w3.org/2000/svg" xmlns:xlink="http://www.w3.org/1999/xlink" viewBox="0 0 506.97 370.29"><defs><style>.cls-1{mask:url(#mask);filter:url(#luminosity-noclip-6);}.cls-10,.cls-2,.cls-4,.cls-6,.cls-8{mix-blend-mode:multiply;}.cls-2{fill:url(#linear-gradient);}.cls-3{mask:url(#mask-2);filter:url(#luminosity-noclip-7);}.cls-4{fill:url(#linear-gradient-2);}.cls-5{mask:url(#mask-3);filter:url(#luminosity-noclip-8);}.cls-6{fill:url(#linear-gradient-3);}.cls-7{mask:url(#mask-4);filter:url(#luminosity-noclip-9);}.cls-8{fill:url(#linear-gradient-4);}.cls-9{mask:url(#mask-5);filter:url(#luminosity-noclip-10);}.cls-10{fill:url(#linear-gradient-5);}.cls-11{isolation:isolate;}.cls-12{mask:url(#mask-6);}.cls-13,.cls-27{opacity:0.72;}.cls-13{fill:url(#linear-gradient-6);}.cls-14{fill:#4a3e46;}.cls-15{fill:#b07042;}.cls-16{fill:#eea886;}.cls-17{fill:#cf8c6c;}.cls-18{fill:#d88a51;}.cls-19{fill:#eb4747;}.cls-20{fill:#db9c7c;}.cls-21{fill:#bd7947;}.cls-22{fill:#eddad3;}.cls-23{fill:#1d3b54;}.cls-24{fill:#a77860;}.cls-25{fill:#6b5a65;}.cls-26{mask:url(#mask-7);}.cls-27{fill:url(#linear-gradient-7);}.cls-28{fill:#ffd255;}.cls-29{fill:#ffd078;}.cls-30{fill:#fff;}.cls-31{fill:url(#radial-gradient);}.cls-32{fill:#ffd179;}.cls-33{fill:#ffd887;}.cls-34{fill:#ffd989;}.cls-35{fill:#ffd785;}.cls-36{opacity:0.08;mix-blend-mode:darken;fill:url(#linear-gradient-8);}.cls-37{mask:url(#mask-8);}.cls-38{fill:url(#linear-gradient-9);}.cls-39{mask:url(#mask-9);}.cls-40{fill:url(#linear-gradient-10);}.cls-41{mask:url(#mask-10);}.cls-42{fill:url(#linear-gradient-11);}.cls-43{fill:#d46946;}.cls-44{fill:url(#linear-gradient-12);}.cls-45{fill:url(#linear-gradient-13);}.cls-46{fill:url(#linear-gradient-14);}.cls-47{fill:#706865;}.cls-48{fill:#bdafaa;}.cls-49{fill:#b5deff;}.cls-50{fill:#ffc655;}.cls-51{fill:#4da8f2;}.cls-52{fill:#efaa88;}.cls-53{fill:#424773;}.cls-54{fill:#292c47;}.cls-55{fill:#e2d2ca;}.cls-56{fill:#dfe1e8;}.cls-57{fill:#518afa;}.cls-58{fill:#202338;}.cls-59{fill:#323657;}.cls-60{fill:#e2e3ed;}.cls-61{fill:#aab1e0;}.cls-62{fill:#81807e;}.cls-63{fill:#dbd8e3;}.cls-64{fill:#1d2033;}.cls-65{fill:#434343;}.cls-66{fill:#eea987;}.cls-67{fill:#5282fc;}.cls-68{fill:#c4c1cc;}.cls-69{fill:#5c5049;}.cls-70{fill:#fab46c;}.cls-71{fill:#fccca2;}.cls-72{fill:#d4c3bd;}.cls-73{fill:#de9673;}.cls-74{fill:#1b4d8f;}.cls-75{fill:#e6d3cc;}.cls-76{fill:#ded1c5;}.cls-77{fill:#bc8551;}.cls-78{fill:#23344a;}.cls-79{fill:#807066;}.cls-80{fill:#e64053;}.cls-81{fill:#5f8cc9;}.cls-82{fill:#3a3f47;}.cls-83{fill:#a32d3b;}.cls-84{fill:#5e5853;}.cls-85{fill:#91887f;}.cls-86{fill:#6e6760;}.cls-87{filter:url(#luminosity-noclip-5);}.cls-88{filter:url(#luminosity-noclip-4);}.cls-89{filter:url(#luminosity-noclip-3);}.cls-90{filter:url(#luminosity-noclip-2);}.cls-91{filter:url(#luminosity-noclip);}</style><filter id="luminosity-noclip" x="314.68" y="-8377.15" width="192.29" height="32766" filterUnits="userSpaceOnUse" color-interpolation-filters="sRGB"><feFlood flood-color="#fff" result="bg"/><feBlend in="SourceGraphic" in2="bg"/></filter><mask id="mask" x="314.68" y="-8377.15" width="192.29" height="32766" maskUnits="userSpaceOnUse"><g class="cls-91"/></mask><linearGradient id="linear-gradient" x1="429.75" y1="397.02" x2="392.84" y2="333.59" gradientUnits="userSpaceOnUse"><stop offset="0"/><stop offset="0.69" stop-color="#fff"/></linearGradient><filter id="luminosity-noclip-2" x="0" y="-8377.15" width="201.03" height="32766" filterUnits="userSpaceOnUse" color-interpolation-filters="sRGB"><feFlood flood-color="#fff" result="bg"/><feBlend in="SourceGraphic" in2="bg"/></filter><mask id="mask-2" x="0" y="-8377.15" width="201.03" height="32766" maskUnits="userSpaceOnUse"><g class="cls-90"/></mask><linearGradient id="linear-gradient-2" x1="120.29" y1="398.48" x2="81.72" y2="332.2" xlink:href="#linear-gradient"/><filter id="luminosity-noclip-3" x="223.35" y="-8377.15" width="15.46" height="32766" filterUnits="userSpaceOnUse" color-interpolation-filters="sRGB"><feFlood flood-color="#fff" result="bg"/><feBlend in="SourceGraphic" in2="bg"/></filter><mask id="mask-3" x="223.35" y="-8377.15" width="15.46" height="32766" maskUnits="userSpaceOnUse"><g class="cls-89"/></mask><linearGradient id="linear-gradient-3" x1="231.08" y1="141.93" x2="231.08" y2="252.16" gradientTransform="translate(30.89 -27.16) rotate(7.21)" gradientUnits="userSpaceOnUse"><stop offset="0.01"/><stop offset="1" stop-color="#fff"/></linearGradient><filter id="luminosity-noclip-4" x="276.35" y="-8377.15" width="14.45" height="32766" filterUnits="userSpaceOnUse" color-interpolation-filters="sRGB"><feFlood flood-color="#fff" result="bg"/><feBlend in="SourceGraphic" in2="bg"/></filter><mask id="mask-4" x="276.35" y="-8377.15" width="14.45" height="32766" maskUnits="userSpaceOnUse"><g class="cls-88"/></mask><linearGradient id="linear-gradient-4" x1="283.58" y1="141.93" x2="283.58" y2="252.16" gradientTransform="translate(591.98 428.62) rotate(173.37)" xlink:href="#linear-gradient-3"/><filter id="luminosity-noclip-5" x="224.74" y="-8377.15" width="65" height="32766" filterUnits="userSpaceOnUse" color-interpolation-filters="sRGB"><feFlood flood-color="#fff" result="bg"/><feBlend in="SourceGraphic" in2="bg"/></filter><mask id="mask-5" x="224.74" y="-8377.15" width="65" height="32766" maskUnits="userSpaceOnUse"><g class="cls-87"/></mask><linearGradient id="linear-gradient-5" x1="257.23" y1="141.93" x2="257.23" y2="252.17" gradientTransform="matrix(1, 0, 0, 1, 0, 0)" xlink:href="#linear-gradient-3"/><filter id="luminosity-noclip-6" x="314.68" y="358.7" width="192.29" height="11.59" filterUnits="userSpaceOnUse" color-interpolation-filters="sRGB"><feFlood flood-color="#fff" result="bg"/><feBlend in="SourceGraphic" in2="bg"/></filter><mask id="mask-6" x="314.68" y="358.7" width="192.29" height="11.59" maskUnits="userSpaceOnUse"><g class="cls-1"><path class="cls-2" d="M507,364.5c0,3.2-43.05,5.79-96.15,5.79s-96.14-2.59-96.14-5.79,43.05-5.8,96.14-5.8S507,361.3,507,364.5Z"/></g></mask><linearGradient id="linear-gradient-6" x1="429.75" y1="397.02" x2="392.84" y2="333.59" gradientUnits="userSpaceOnUse"><stop offset="0" stop-color="#97cbec"/><stop offset="0.69" stop-color="#ccc2f5"/></linearGradient><filter id="luminosity-noclip-7" x="0" y="358.7" width="201.03" height="11.59" filterUnits="userSpaceOnUse" color-interpolation-filters="sRGB"><feFlood flood-color="#fff" result="bg"/><feBlend in="SourceGraphic" in2="bg"/></filter><mask id="mask-7" x="0" y="358.7" width="201.03" height="11.59" maskUnits="userSpaceOnUse"><g class="cls-3"><path class="cls-4" d="M201,364.5c0,3.2-45,5.79-100.52,5.79S0,367.7,0,364.5s45-5.8,100.51-5.8S201,361.3,201,364.5Z"/></g></mask><linearGradient id="linear-gradient-7" x1="120.29" y1="398.48" x2="81.72" y2="332.2" xlink:href="#linear-gradient-6"/><radialGradient id="radial-gradient" cx="231.81" cy="87.06" r="174.73" gradientUnits="userSpaceOnUse"><stop offset="0.01" stop-color="#ffdd91"/><stop offset="0.99" stop-color="#ffe655"/></radialGradient><linearGradient id="linear-gradient-8" x1="149.89" y1="144.87" x2="361.08" y2="144.87" gradientUnits="userSpaceOnUse"><stop offset="0" stop-color="#e0e0e0"/><stop offset="1" stop-color="#ff556f"/></linearGradient><filter id="luminosity-noclip-8" x="223.35" y="181.78" width="15.46" height="99.87" filterUnits="userSpaceOnUse" color-interpolation-filters="sRGB"><feFlood flood-color="#fff" result="bg"/><feBlend in="SourceGraphic" in2="bg"/></filter><mask id="mask-8" x="223.35" y="181.78" width="15.46" height="99.87" maskUnits="userSpaceOnUse"><g class="cls-5"><rect class="cls-6" x="229.64" y="181.57" width="2.89" height="100.3" transform="translate(-27.24 30.82) rotate(-7.21)"/></g></mask><linearGradient id="linear-gradient-9" x1="231.08" y1="141.93" x2="231.08" y2="252.16" gradientTransform="translate(30.89 -27.16) rotate(7.21)" gradientUnits="userSpaceOnUse"><stop offset="0.01" stop-color="#ffdd91"/><stop offset="1" stop-color="#fff"/></linearGradient><filter id="luminosity-noclip-9" x="276.35" y="181.47" width="14.45" height="99.97" filterUnits="userSpaceOnUse" color-interpolation-filters="sRGB"><feFlood flood-color="#fff" result="bg"/><feBlend in="SourceGraphic" in2="bg"/></filter><mask id="mask-9" x="276.35" y="181.47" width="14.45" height="99.97" maskUnits="userSpaceOnUse"><g class="cls-7"><rect class="cls-8" x="282.14" y="181.3" width="2.89" height="100.31" transform="translate(538.54 494.1) rotate(-173.37)"/></g></mask><linearGradient id="linear-gradient-10" x1="283.58" y1="141.93" x2="283.58" y2="252.16" gradientTransform="translate(591.98 428.62) rotate(173.37)" xlink:href="#linear-gradient-9"/><filter id="luminosity-noclip-10" x="224.74" y="183.59" width="65" height="13.58" filterUnits="userSpaceOnUse" color-interpolation-filters="sRGB"><feFlood flood-color="#fff" result="bg"/><feBlend in="SourceGraphic" in2="bg"/></filter><mask id="mask-10" x="224.74" y="183.59" width="65" height="13.58" maskUnits="userSpaceOnUse"><g class="cls-9"><polygon class="cls-10" points="278.36 197.16 267.48 186.4 256.89 197.09 246.37 186.68 236.14 197.02 224.74 185.73 226.13 184.32 236.13 194.21 246.35 183.88 256.87 194.29 267.46 183.59 278.34 194.36 288.32 184.27 289.73 185.67 278.36 197.16"/></g></mask><linearGradient id="linear-gradient-11" x1="257.23" y1="141.93" x2="257.23" y2="252.17" gradientTransform="matrix(1, 0, 0, 1, 0, 0)" xlink:href="#linear-gradient-9"/><linearGradient id="linear-gradient-12" x1="201.23" y1="276.03" x2="308.86" y2="276.03" gradientUnits="userSpaceOnUse"><stop offset="0" stop-color="#40d5e6"/><stop offset="1" stop-color="#57f"/></linearGradient><linearGradient id="linear-gradient-13" x1="-11623.48" y1="302.35" x2="-11937.03" y2="302.35" gradientTransform="matrix(-1, 0, 0, 1, -11515.07, 0)" gradientUnits="userSpaceOnUse"><stop offset="0" stop-color="#ff9f55"/><stop offset="1" stop-color="#ffd255"/></linearGradient><linearGradient id="linear-gradient-14" x1="-11738.81" y1="302.35" x2="-11830.75" y2="302.35" xlink:href="#linear-gradient-13"/></defs><g class="cls-11"><g id="Layer_2" data-name="Layer 2"><g id="Слой_1" data-name="Слой 1"><g class="cls-12"><path class="cls-13" d="M507,364.5c0,3.2-43.05,5.79-96.15,5.79s-96.14-2.59-96.14-5.79,43.05-5.8,96.14-5.8S507,361.3,507,364.5Z"/></g><path class="cls-14" d="M437.41,355.25a2.06,2.06,0,1,0,2.06-2.05A2.06,2.06,0,0,0,437.41,355.25Z"/><polygon class="cls-14" points="483.68 353.22 483.16 354.68 461.17 347.87 462.23 344.91 483.68 353.22"/><rect class="cls-14" x="460.42" y="320.29" width="2.5" height="26.54" transform="translate(923.34 667.12) rotate(180)"/><polygon class="cls-14" points="439.46 353.22 439.99 354.68 461.97 347.87 461 344.72 439.46 353.22"/><polygon class="cls-14" points="454.96 354.52 454.96 356.23 461.97 347.87 461 344.72 454.96 354.52"/><path class="cls-14" d="M454.78,355.25a2.06,2.06,0,1,0,2.06-2.05A2.06,2.06,0,0,0,454.78,355.25Z"/><path class="cls-15" d="M430.3,348.11a13.38,13.38,0,0,1-.47,3c-.34,1.19-1,5.8-1.85,6.44s-3.6,2.35-3.19,4.11.74,3,3.7,1.94,4.95-1.63,5.52-4.23a16.2,16.2,0,0,1,2.18-5l2.15,5.32,1.13-.45s-1.71-5.75-1.56-6.27-.79-5.08-4.37-6.21S430.3,348.11,430.3,348.11Z"/><path class="cls-15" d="M410.51,349.79a13.31,13.31,0,0,1-1.57,2.62c-.75,1-3.08,5-4.11,5.29s-4.22.84-4.5,2.62-.42,3,2.72,3.18,5.19.33,6.69-1.87a16.3,16.3,0,0,1,3.89-3.79v5.74h1.21s.56-6,.89-6.4,1.17-5-1.73-7.39S410.51,349.79,410.51,349.79Z"/><path class="cls-16" d="M442.41,271.78s-.7-2.47-.77-2.79a5.17,5.17,0,0,0-1.55-1.64,6.08,6.08,0,0,0-2.4-1.15,1,1,0,0,0-.67.4,1.77,1.77,0,0,0-.33.84,1.1,1.1,0,0,0-.57.88.94.94,0,0,0-.42,1,.79.79,0,0,0-.39.78,7.29,7.29,0,0,1,.84.95,15.21,15.21,0,0,0,3.23,2.53S441.4,275,442.41,271.78Z"/><path class="cls-17" d="M439.37,269.82a5.09,5.09,0,0,0-.23,1.38c.06.33-2.38.38-2.38.38S438.1,269.49,439.37,269.82Z"/><path class="cls-18" d="M466.84,276c-1-1.6-2.3-2.31-6.47.57s-3.19,2.32-4.19,3.24a47.05,47.05,0,0,1-5.38,3.2A39.62,39.62,0,0,1,447,278.7c-1.38-2-4.27-7.48-4.27-7.48l-4.05,3s7.87,14.26,9.51,15.31,6.59-.71,9.17-1.79,5.3-2.49,6.48-2.78S469.41,280.19,466.84,276Z"/><rect class="cls-19" x="437.41" y="259.43" width="0.77" height="9.15" transform="translate(-46.69 100.8) rotate(-12.47)"/><path class="cls-20" d="M437.91,266.37s2,1.75,1.8,2.11a.69.69,0,0,1-.55.35l.51,1.1s-.07.92-1.05.57c0,0,0,.87-.89.42,0,0-.24.58-.69.45a8.84,8.84,0,0,1-1.73-1.31s-.18-.38.36-.79a.93.93,0,0,1,.43-1,1,1,0,0,1,.56-.89s.06-1.15,1-1.22C437.69,266.2,437.82,266.29,437.91,266.37Z"/><path class="cls-16" d="M441.61,269a9,9,0,0,0-2.41-1.58c-.24-.08-.48-.11-.64.07s-.09.67.47,1.24a6.52,6.52,0,0,1,1,1.55S440.82,270.7,441.61,269Z"/><path class="cls-21" d="M447.38,284.69a9.37,9.37,0,0,1,.15-5.28,6.87,6.87,0,0,0,.68,4.08C449,284.72,447.38,284.69,447.38,284.69Z"/><path class="cls-22" d="M432.47,285.15s-2.21-16.33-6.05-23.45h5.65s6.33,11.15,5.14,22.42Z"/><path class="cls-16" d="M431.11,272.93s-.64-1.2-.8-1.6-.78.29-.69.8S431.11,272.93,431.11,272.93Z"/><path class="cls-16" d="M426.11,275.66a2.52,2.52,0,0,0,.37.81s.39.37.66.65a2.49,2.49,0,0,1,.19.23,5.07,5.07,0,0,0,1,1.26c.57.46,2.72,1.86,2.72,1.86l1.52-1.63,1.22-1.26s-1-3.87-1.51-4.35a.57.57,0,0,0-.14-.13,6.73,6.73,0,0,0-1.18-.63c-.1-.06-1.07-.61-1.38-.49a1.09,1.09,0,0,0-.73.77,2.61,2.61,0,0,0-1.11.91,1.61,1.61,0,0,0-.93,1.09S426.08,275.15,426.11,275.66Z"/><path class="cls-16" d="M416.1,317.82s3.74,8.4,6.4,14.4c.45,1,.86,1.95,1.23,2.77s.78,1.76,1,2.31c1.69,3.81,5.87,12.14,5.87,12.14s3.14.12,3.32-2.55c0,0-3-5.78-3-9.83s-.55-16-4.43-18.6C421.78,315.3,418.72,314.71,416.1,317.82Z"/><path class="cls-16" d="M450.62,301.86a4.24,4.24,0,0,1-1.45,1c-.67.18-11.81,1-17,2.72s-12,2.79-13.27,4.24-3.39,9.46-3.33,11-4.53,27-5.1,29c-.3,1,4.15.65,4.15.65s6.32-15.08,7.67-17.87c2.48-5.12,2.61-11.39,3.52-12.36s11-3.15,16.84-3.15,18.84.49,20.23-.3,10.12-6.54,6.48-14.24S450.62,301.86,450.62,301.86Z"/><path class="cls-23" d="M425.5,307.41l9.19,17.71s2.79-6.59,7.63-7.72,24.2-.53,24.2-.53,8.88-11.23,1.28-17.12-16.49.92-16.49.92-1.83,2-2.72,2S440.6,302.57,425.5,307.41Z"/><path class="cls-16" d="M404.83,357.7s2.81.7,3.88,0,4.74-6.89,6-7.26c0,0-1.18-2.38-4.15-.65C410.51,349.79,405.62,356.67,404.83,357.7Z"/><path class="cls-16" d="M428,357.57s2.87-.4,3.6-1.45,1.83-8.16,2.81-8.95c0,0-2-1.78-4.09.94C430.3,348.11,428.33,356.32,428,357.57Z"/><path class="cls-14" d="M481.62,355.25a2.06,2.06,0,1,0,2.06-2.05A2.06,2.06,0,0,0,481.62,355.25Z"/><path class="cls-16" d="M457.28,246.1a7.51,7.51,0,0,0-7.89,6.88,18.18,18.18,0,0,0,.57,2.83c.38,1.24-.73,4.91-.44,5.09a8.05,8.05,0,0,0,1.49.41s1.29,4,2.7,4a11.7,11.7,0,0,0,9.24-6.12C465.46,254.18,466.23,246.53,457.28,246.1Z"/><path class="cls-16" d="M455.61,263.46s.17.56.37,1.39c.1.43.21.93.3,1.45a10.11,10.11,0,0,1,0,4.31s3.1,1.08,5.56-3.32c0,0-1.05-4.73.32-7.6S455.61,263.46,455.61,263.46Z"/><path class="cls-23" d="M449.39,253s3.4,3,7,2.81,6,4.32,6,4.32,5.44-6.82,1.06-12.34S448.62,246.14,449.39,253Z"/><path class="cls-16" d="M458,255.76A1.11,1.11,0,0,1,460,255c1.13,1-.39,4.23-1.32,3.91S458,256.48,458,255.76Z"/><path class="cls-24" d="M456,264.85c.1.43.21.93.3,1.45a15.48,15.48,0,0,0,4.34-4.06A17.29,17.29,0,0,1,456,264.85Z"/><path class="cls-18" d="M447.55,281.65c.65,3,2.37,3.19,2.27,5.44s-.78,2.43.39,6a18.41,18.41,0,0,1,.52,2.1,2.21,2.21,0,0,1,0,.25c.08.41.14.82.2,1.23.1.75.18,1.48.23,2.15a4.5,4.5,0,0,1-1.15,3.09s11.34,6.79,19.12,5.84c0,0-2-8.47-3.12-11.38s-.78-16.36,0-19.24c1.21-4.26-1.2-10.64-4.49-11.48L456.5,268s-5.14,6.14-6.29,7.06S446.88,278.58,447.55,281.65Z"/><path class="cls-18" d="M464.41,269.22c-1.43-1.2-3.52-3.25-6.56.81s-5.26,6.68-5.91,7.87-6.38,9.44-6.38,9.44-3-2.82-4.78-4.15c-1.95-1.49-7.29-7.05-7.29-7.05L430,280.05s12.24,13.58,14.13,14.06,7.19-4.29,9.29-6.14,8-8.58,9-9.23S468.17,272.35,464.41,269.22Z"/><path class="cls-24" d="M422.5,332.22c.45,1,.86,1.95,1.23,2.77,1.38-4.42,1.26-11.8,1.26-11.8A42,42,0,0,1,422.5,332.22Z"/><rect class="cls-25" x="442.32" y="316.87" width="39.3" height="4.32" transform="translate(923.95 638.07) rotate(180)"/><path class="cls-25" d="M461.17,303.08s1,4-3.67,4.92-10.4,2.07-10.4,9.27h16.18Z"/><polygon class="cls-16" points="437.19 259.46 436.52 258.23 436.43 259.63 437.19 259.46"/><path class="cls-25" d="M481.62,321.2l13.74-57.74s-24.84-3.89-27.8,7.27-7.82,44.28-13.74,46.33S481.62,321.2,481.62,321.2Z"/><path class="cls-21" d="M449.68,291.12s.25,1.06.52,1.94l6-7.84Z"/><path class="cls-23" d="M464.83,255.21s-2.39,6.31-1.74,8a5.32,5.32,0,0,1-3-5.73C460.72,253.38,464.83,255.21,464.83,255.21Z"/><polygon class="cls-18" points="456.21 268.33 456.21 267.08 461.51 264.5 463.35 266.62 456.21 268.33"/><g class="cls-26"><path class="cls-27" d="M201,364.5c0,3.2-45,5.79-100.52,5.79S0,367.7,0,364.5s45-5.8,100.51-5.8S201,361.3,201,364.5Z"/></g><path class="cls-28" d="M104.11,91.34a6.74,6.74,0,0,1-3.5-2.34,5.06,5.06,0,0,1-1-4.17,30.73,30.73,0,0,0-.18-8.12,13.59,13.59,0,1,1,15.85,3.82,29.32,29.32,0,0,0-3.31,7c-.65,2.93-3.93,4.7-7.33,4Zm9.24-35.29a12.49,12.49,0,0,0-13,20.07l.11.12,0,.16a32.46,32.46,0,0,1,.2,8.6v0a4,4,0,0,0,.82,3.28,5.73,5.73,0,0,0,3.36,2.06c2.8.61,5.5-.8,6-3.13v0a30.64,30.64,0,0,1,3.53-7.42l.1-.15.16-.07a12.49,12.49,0,0,0-1.31-23.52Z"/><polygon class="cls-28" points="102.59 86.29 103.89 71.42 106.39 74.55 108.7 72.86 109.91 75.16 113.24 73.36 108.48 87.52 107.42 87.17 111.29 75.68 109.46 76.67 108.32 74.52 106.19 76.08 104.76 74.29 103.7 86.38 102.59 86.29"/><rect class="cls-28" x="99.65" y="90.1" width="9.64" height="3.89" transform="translate(21.86 -20.04) rotate(12.23)"/><rect class="cls-28" x="98.69" y="86.19" width="12.75" height="6.26" transform="translate(21.3 -20.22) rotate(12.23)"/><polygon class="cls-29" points="398.19 171.13 397.1 170.76 406.21 144.24 426.57 138.6 433.57 109.52 449.25 102.39 452.51 79.81 453.65 79.97 450.29 103.17 434.56 110.34 427.52 139.53 407.1 145.18 398.19 171.13"/><path class="cls-30" d="M429.4,137.1a3.06,3.06,0,1,1-4.32-.39A3.06,3.06,0,0,1,429.4,137.1Z"/><path class="cls-29" d="M429.38,141.85a3.64,3.64,0,1,1,.46-5.12A3.64,3.64,0,0,1,429.38,141.85Zm-3.93-4.7a2.49,2.49,0,1,0,3.51.31A2.48,2.48,0,0,0,425.45,137.15Z"/><path class="cls-30" d="M436.5,108.14a3.06,3.06,0,1,1-4.32-.39A3.07,3.07,0,0,1,436.5,108.14Z"/><path class="cls-29" d="M436.48,112.9a3.64,3.64,0,1,1,.46-5.13A3.64,3.64,0,0,1,436.48,112.9Zm-3.93-4.7a2.49,2.49,0,1,0,3.51.31A2.49,2.49,0,0,0,432.55,108.2Z"/><path class="cls-30" d="M451.93,100.81a3.06,3.06,0,1,1-4.32-.39A3.05,3.05,0,0,1,451.93,100.81Z"/><path class="cls-29" d="M451.91,105.56a3.64,3.64,0,1,1,.46-5.12A3.63,3.63,0,0,1,451.91,105.56Zm-3.93-4.7a2.49,2.49,0,1,0,3.51.32A2.5,2.5,0,0,0,448,100.86Z"/><path class="cls-30" d="M409.12,143a3.06,3.06,0,1,1-4.31-.38A3.06,3.06,0,0,1,409.12,143Z"/><path class="cls-29" d="M409.11,147.76a3.64,3.64,0,1,1,.45-5.13A3.65,3.65,0,0,1,409.11,147.76Zm-3.93-4.7a2.49,2.49,0,1,0,3.5.31A2.49,2.49,0,0,0,405.18,143.06Z"/><path class="cls-31" d="M344.94,110.11c-.21-42.44-40.94-76.64-91-76.4s-90.41,34.86-90.2,77.3a66.84,66.84,0,0,0,8,31.33s27.93,53.94,32.1,105.16c.11,24,23.11,43.28,51.35,43.14s51-19.68,50.93-43.64c3.66-51.29,31.06-105.48,31.06-105.48h0A67,67,0,0,0,344.94,110.11Z"/><polygon class="cls-32" points="360.44 6.44 370.57 6.44 367.47 0 357.33 0 360.44 6.44"/><polygon class="cls-32" points="355.69 6.44 358.11 6.44 355 0 352.59 0 355.69 6.44"/><rect class="cls-33" x="146.66" y="12.35" width="26.05" height="1.83" transform="translate(319.38 26.53) rotate(180)"/><rect class="cls-33" x="146.66" y="15.79" width="26.05" height="7.68" transform="translate(319.38 39.26) rotate(180)"/><rect class="cls-33" x="134.43" y="26.05" width="15.37" height="1.15" transform="translate(284.22 53.25) rotate(180)"/><rect class="cls-33" x="134.43" y="27.7" width="15.37" height="3.11" transform="translate(284.22 58.51) rotate(180)"/><rect class="cls-34" x="176.99" y="2.51" width="1.15" height="21.51" transform="translate(355.13 26.53) rotate(180)"/><rect class="cls-35" x="105.45" y="133.24" width="20.52" height="3.72" transform="translate(231.41 270.21) rotate(180)"/><rect class="cls-35" x="105.45" y="131.51" width="20.52" height="0.7" transform="translate(231.41 263.72) rotate(180)"/><path class="cls-29" d="M370.93,129l-3.2-.64C375.35,90,368.89,59,349,38.62a73.62,73.62,0,0,0-32.76-19.49L317,16c.75.16,18.57,4.24,34.28,20.28C365.7,51,380.86,79.06,370.93,129Z"/><path class="cls-29" d="M154.84,177.3c-30.65-58.12-11.49-89.68-10.66-91l2.76,1.74c-.19.3-18.91,31.42,10.78,87.73Z"/><path class="cls-30" d="M294.56,121.73a25.23,25.23,0,0,0,1.58-6.89l4.65-1.78-.9-5.33-.9-5.33-5-.16a25,25,0,0,0-3.75-6l2-4.54-4.41-3.14-4.4-3.13-3.62,3.4A25.6,25.6,0,0,0,273,87.27l-1.78-4.64-5.33.89-5.33.9-.15,5a25.13,25.13,0,0,0-6,3.74l-4.54-2-3.14,4.4-3.13,4.4,3.4,3.63a25.16,25.16,0,0,0-1.58,6.88l-4.64,1.78.89,5.33.9,5.33,5,.16a25.33,25.33,0,0,0,3.74,6l-2,4.54,4.4,3.13,4.4,3.14,3.63-3.41a25.25,25.25,0,0,0,6.88,1.58l1.78,4.65,5.33-.9,5.33-.9.16-5a24.86,24.86,0,0,0,6-3.75l4.54,2,3.13-4.4,3.14-4.41Zm-31.47,1.71a13.26,13.26,0,1,1,18.49-3.12A13.26,13.26,0,0,1,263.09,123.44Z"/><path class="cls-30" d="M245.73,150.62a15.77,15.77,0,0,0,1-4.35l2.94-1.13-.56-3.37-.57-3.37-3.15-.1a15.83,15.83,0,0,0-2.37-3.79l1.28-2.87-2.78-2-2.79-2-2.29,2.15a16.16,16.16,0,0,0-4.35-1L231,125.89l-3.37.57-3.37.57-.1,3.14a16.48,16.48,0,0,0-3.79,2.37l-2.87-1.28-2,2.79-2,2.78,2.15,2.29a16.31,16.31,0,0,0-1,4.36l-2.94,1.12.57,3.38.57,3.37,3.14.1a16.09,16.09,0,0,0,2.37,3.78l-1.28,2.87,2.79,2,2.78,2,2.29-2.15a16.31,16.31,0,0,0,4.36,1l1.12,2.93,3.37-.56,3.38-.57.1-3.15A15.77,15.77,0,0,0,241,157.2l2.87,1.29,2-2.79,2-2.79Zm-19.91,1.08a8.38,8.38,0,1,1,11.69-2A8.39,8.39,0,0,1,225.82,151.7Z"/><path class="cls-36" d="M158.16,272.21S107.66,14,256.24,17.58,351.93,272,351.93,272Z"/><g class="cls-37"><rect class="cls-38" x="229.64" y="181.57" width="2.89" height="100.3" transform="translate(-27.24 30.82) rotate(-7.21)"/></g><g class="cls-39"><rect class="cls-40" x="282.14" y="181.3" width="2.89" height="100.31" transform="translate(538.54 494.1) rotate(-173.37)"/></g><g class="cls-41"><polygon class="cls-42" points="278.36 197.16 267.48 186.4 256.89 197.09 246.37 186.68 236.14 197.02 224.74 185.73 226.13 184.32 236.13 194.21 246.35 183.88 256.87 194.29 267.46 183.59 278.34 194.36 288.32 184.27 289.73 185.67 278.36 197.16"/></g><path class="cls-43" d="M284.29,317.87l-58,.29a11.66,11.66,0,0,1-11.71-11.6l-.11-22.82,81.29-.4.11,22.82A11.65,11.65,0,0,1,284.29,317.87Z"/><path class="cls-44" d="M291.44,303.64,219,304a17.51,17.51,0,0,1-17.59-17.42l-.19-38,107.44-.53.19,38A17.51,17.51,0,0,1,291.44,303.64Z"/><rect class="cls-45" x="158.16" y="272.04" width="193.77" height="60.61"/><polygon class="cls-46" points="351.93 332.65 351.93 272.04 281.41 272.04 243.51 331.97 351.93 332.65"/><rect class="cls-47" x="161.96" y="244.3" width="2.36" height="107.14"/><path class="cls-48" d="M104.22,199.54h63.41a7.08,7.08,0,0,1,7.08,7.08V326.68a7.08,7.08,0,0,1-7.08,7.08H104.22a7.07,7.07,0,0,1-7.07-7.07V206.61A7.08,7.08,0,0,1,104.22,199.54Z"/><rect class="cls-30" x="99.28" y="201.7" width="73.3" height="126.81" rx="6.99"/><rect class="cls-47" x="124.37" y="198.52" width="23.11" height="5.22"/><path class="cls-49" d="M114.59,228.83a19.82,19.82,0,0,1,19.8-19.8v.89a18.92,18.92,0,1,0,18.92,18.91,19.74,19.74,0,0,0-.2-2.77l.87-.13a18.69,18.69,0,0,1,.22,2.9,19.81,19.81,0,1,1-39.61,0Z"/><path class="cls-16" d="M89.43,291.26a4.67,4.67,0,0,1,.6,1.58,7.51,7.51,0,0,0,.73,1.87,17.18,17.18,0,0,1,.89,3.12,14.32,14.32,0,0,0-.42,2.08c.07.45.33,1.35-.08,1.41s-.86-.68-.86-.68a.6.6,0,0,1-.3.58,1,1,0,0,1-1,0s-.25.46-.56.52a1.22,1.22,0,0,1-1-.14,1.21,1.21,0,0,1-.77.25,1,1,0,0,1-.85-.53s-.77.15-1-.2a3.38,3.38,0,0,1-.27-1.06,12.4,12.4,0,0,1,1-5.32,4.73,4.73,0,0,0-.25-4.14Z"/><path class="cls-20" d="M90.4,300.37s.07-2.61-.62-3.16-.77.38-.77.38.1-.93-.65-1-.79,1-.79,1a.72.72,0,0,0-.91-.57c-.78.14-.6,1.06-.6,1.06s-.75-.9-1.24,0a4,4,0,0,0-.07,3.2s.26.41,1,.22a1.06,1.06,0,0,0,1.64.3s1.16.63,1.58-.38C89,301.31,90.34,301.84,90.4,300.37Z"/><path class="cls-50" d="M98.28,253.68s-4.46,14.89-6,20.37c-.47,1.73-1.62,18.17-1.82,18.83s-5.87,1.57-5.87,1.57.69-20.57.75-21.69,6.25-24.1,8-24.92c1.35-.61,2.06-.1,3.76,1.16C99.56,250.77,98.28,253.68,98.28,253.68Z"/><rect class="cls-51" x="141.09" y="229.41" width="12.22" height="0.91" transform="translate(-101.79 118.02) rotate(-33.18)"/><path class="cls-52" d="M153.65,230a2.61,2.61,0,0,1-.27.81s-.33.4-.55.7a2.45,2.45,0,0,0-.16.24,5,5,0,0,1-.85,1.31c-.48.49-2.38,2.06-2.38,2.06l-1.62-1.37-1.69-.76a32,32,0,0,1,1.34-4.62l.12-.14a7.07,7.07,0,0,1,1.06-.73c.09-.06.95-.69,1.26-.61a1.06,1.06,0,0,1,.78.65,2.55,2.55,0,0,1,1.16.75,1.55,1.55,0,0,1,1,.93S153.61,229.5,153.65,230Z"/><path class="cls-53" d="M94.66,355.31s-.41,2.83-.46,3.25-4.53-.25-4.53-.25L89.31,355S94.1,354.91,94.66,355.31Z"/><path class="cls-54" d="M94.25,358.2A12,12,0,0,0,97,360.65c1.37.74,3.53,1,4.34,1.8.59.56,2.13,2.95-3.57,2.9s-8.44.33-9-.58.88-6.76.88-6.76A12,12,0,0,0,94.25,358.2Z"/><path class="cls-53" d="M126.74,355.31s-.4,2.83-.45,3.25-4.53-.25-4.53-.25l-.37-3.36S126.18,354.91,126.74,355.31Z"/><path class="cls-54" d="M126.33,358.2a12,12,0,0,0,2.79,2.45c1.38.74,6.43,1.35,7.24,2.12.58.55,1.56,2.79-6.46,2.58-5.7-.15-8.45.33-9.06-.58s.88-6.76.88-6.76S123,358.53,126.33,358.2Z"/><path class="cls-54" d="M98.37,282.7s-4.21,6.69-3.9,12.73S93,308.07,92.32,314.38c-.71,7-3.59,23.7-3.7,27.47s.45,15.78.45,15.78l5.77.13s4.85-29.12,6.11-32.1,7.48-24.16,7.69-26.53S98.37,282.7,98.37,282.7Z"/><path class="cls-54" d="M120.52,283.61s3.17,16.56,3.59,20.26.69,17.9.9,20.21,2,30.18,2.51,33.68h-7.38s-5.66-20.31-5.66-29.92-4.38-20.89-7.2-27.23-9.29-6.49-11-18.25C96.25,282.36,118.17,279.88,120.52,283.61Z"/><path class="cls-16" d="M105.39,226.5s5.65-2.11,8.25,2.19,2.35,12.9-.49,14-7.13.51-8.58-2.18-2.78-6.58-2.71-9.18S103.91,227.25,105.39,226.5Z"/><path class="cls-16" d="M112.53,242.85a4.87,4.87,0,0,0,.16,2.27c.39.76-7.32.78-7.32.78a50,50,0,0,0-1.81-7.54C102.37,234.91,112.53,242.85,112.53,242.85Z"/><path class="cls-54" d="M103.56,238.36s.53.88,2.7.54,4.82-3.23,5.73-3.55.91-.85.91-.85l.57.83,1,.06s-.88-2.58.45-3.64-1.38-8.36-8.34-5.93c0,0-5.35,1.48-5.15,4.52S102.36,236.84,103.56,238.36Z"/><path class="cls-55" d="M113.14,245s0-1.44-.67-1.58-7.18-.76-8-.45v1.67S106,245.63,113.14,245Z"/><path class="cls-16" d="M112.76,233.39c-.12-.51-1.42-2-1.92-.4s.75,3.66,1.45,3.48S113.07,234.69,112.76,233.39Z"/><path class="cls-50" d="M123.94,247.21c-4.47-.59-10.8-2.17-10.8-2.17l-8.65-.36s-7.94,1.75-11.07,3.16c-.3.14-.3,7.09-1.11,8.91l2.59,5.47s1.5,10.84,1.81,15.66c.14,2.21-3.09,20.75-3.09,20.75A59.54,59.54,0,0,0,103,300.3c5.91.65,20.66-.24,20.76-.93s-2.86-26-3-27.29c-.2-2,.69-12.68.69-12.68,1.36-1.06,13.34-6.62,16.6-9.51.88-.78,4.57-4.37,5.61-5.61a101.15,101.15,0,0,0,7.13-9c.43-.47-4.17-3-4.57-3.09s-5.24,6.45-7.17,8.55a54.15,54.15,0,0,1-4.44,3.53S126.75,247.37,123.94,247.21Z"/><path class="cls-54" d="M103.78,227s-7.2.56-.22,11.35Z"/><polygon class="cls-56" points="152.56 226.9 153.15 226 152.06 226.14 152.56 226.9"/><polygon class="cls-57" points="502.57 208.07 468.9 208.07 468.9 232.48 468.9 237.62 474.04 232.48 502.57 232.48 502.57 208.07"/><path class="cls-58" d="M37.86,358.3A20.1,20.1,0,0,1,36.14,361c-.68.77-3.28,2.15-3.3,4.44,0,2.48,4.39,1.79,6.11,1.7s1.85-1.42,2.58-2.82,1.46-1.17,1.59-2.3a13.23,13.23,0,0,0-.7-3.73Z"/><path class="cls-59" d="M63.94,292.15s-4.85-11.3-5.44-14.08c-.26-1.27-1-4.4-1.45-7-.15-.85-.28-1.73-.39-2.58h0c-.43-3.42-.54-6.53-.54-6.53s-2.58-8.83,2.94-9.37a13.37,13.37,0,0,1,2,.84c.92,2.17,1.29,7.7,1.32,8.9,0,1,1.46,10.79,1.48,11.14,0,.67,1.51,4.21,2.29,6.83,1.72,5.72,2.63,10.23,2.63,10.23Z"/><rect class="cls-60" x="52.94" y="272.54" width="24.88" height="21.76"/><rect class="cls-61" x="69.09" y="283.75" width="1.38" height="6.69"/><rect class="cls-61" x="71.01" y="285.51" width="1.38" height="4.93"/><rect class="cls-61" x="72.93" y="282.92" width="1.38" height="7.53"/><path class="cls-16" d="M72.1,293s-.14,2.94-1.72,3.44a5.31,5.31,0,0,1-4-.39c-.73-.44-2.56-1.73-1.87-2.54C66.69,290.85,72.1,293,72.1,293Z"/><path class="cls-16" d="M71.3,295.67s2,.14,1.86-.69-1.52-.51-1.52-.51Z"/><rect class="cls-61" x="63.07" y="285.35" width="1.38" height="5.09"/><rect class="cls-61" x="65.04" y="284.83" width="1.38" height="5.61"/><rect class="cls-61" x="67.04" y="285.9" width="1.38" height="4.54"/><rect class="cls-61" x="61.03" y="285.9" width="1.39" height="4.54"/><path class="cls-61" d="M56.15,282.55l0,.05-.06,0-1.48,1,0-.06,1.49-1Z"/><path class="cls-61" d="M61.5,282.83v.07h-.07l-4.25-.5h-.06v-.07h.07l4.25.5Z"/><path class="cls-61" d="M65.68,279.66l-.05,0-3.16,2.86,0,0,0-.05,0,0,3.15-2.86,0,0Z"/><path class="cls-61" d="M70.83,279.28v0H66.56v-.06h4.27Z"/><path class="cls-61" d="M74.5,275.89l-2.73,3,0,.05s0,0,0-.05l0,0,2.73-3Z"/><path class="cls-61" d="M56.6,281.7a.58.58,0,0,0-.58.58.5.5,0,0,0,.08.3l0,.06a.6.6,0,0,0,.47.23.59.59,0,0,0,.58-.48.2.2,0,0,0,0-.07v0A.58.58,0,0,0,56.6,281.7Zm.52.68a.53.53,0,0,1-.52.42.54.54,0,0,1-.41-.2l0-.05a.6.6,0,0,1-.07-.27.53.53,0,0,1,.52-.52.52.52,0,0,1,.52.52v.1Z"/><path class="cls-61" d="M62.47,282.56a.1.1,0,0,0,0-.05.57.57,0,0,0-.41-.17.59.59,0,0,0-.58.48s0,.05,0,.07v0a.59.59,0,1,0,1.17,0A.54.54,0,0,0,62.47,282.56Zm-.45.89a.52.52,0,0,1-.52-.52v-.1a.53.53,0,0,1,.52-.42.51.51,0,0,1,.36.14l0,.05a.48.48,0,0,1,.12.33A.53.53,0,0,1,62,283.45Z"/><path class="cls-61" d="M66.63,279.25a.59.59,0,1,0-1,.4l0,.05a.59.59,0,0,0,.41.17.6.6,0,0,0,.59-.56v-.06Zm-.59.55a.51.51,0,0,1-.36-.14l-.05-.05a.55.55,0,0,1-.11-.33.52.52,0,0,1,1,0v.06A.52.52,0,0,1,66,279.8Z"/><path class="cls-61" d="M71.77,278.87l0,0a.55.55,0,0,0-.37-.14.6.6,0,0,0-.59.56v.06a.6.6,0,0,0,.59.56.59.59,0,0,0,.59-.59A.61.61,0,0,0,71.77,278.87Zm-.42.93a.52.52,0,0,1-.52-.49v-.06a.52.52,0,0,1,.52-.49.5.5,0,0,1,.32.11s0,0,0,.05a.52.52,0,0,1-.37.88Z"/><path class="cls-16" d="M24.65,292.57s-.85,1.49-1.87,1.46a6.07,6.07,0,0,0-2.37.7c-.47.22-2.19.42-1.91,1s2.84-.2,3.41-.25-.91,1.93-.88,2.48,3.6,2.57,4.45,1.1.74-3.54.95-3.77a10.57,10.57,0,0,0,.66-1Z"/><path class="cls-16" d="M21.14,297.56s-2.29,4.66-2.17,5.08.4.52.63.09L22,298.28s-1.74,5.92-1.72,6.29c0,.21.52.42.67.2s2.22-6,2.22-6-1.61,5.52-1.5,5.82a.43.43,0,0,0,.78-.06c.15-.4,2-5.45,2-5.45s-.91,4.08-.65,4.28.59.32.79-.74,1-3.52,1-3.52Z"/><path class="cls-58" d="M64.07,358.07s2.13,2.37,4.28,2.87S72,362.07,72,363.43s-6.2,2.25-8.67.88c-3.68-2-4-1.43-4.46-2.45s.49-3.76.47-4.08S64.07,358.07,64.07,358.07Z"/><path class="cls-62" d="M63.84,356.94a8.38,8.38,0,0,1,.23,1.13s-4.85.6-4.7-.29c.11-.73.28-1.51.28-1.51Z"/><path class="cls-62" d="M42.36,357.55a9.36,9.36,0,0,1,.16,1.08s-4.88.89-4.85,0a4.15,4.15,0,0,1,.45-1.51Z"/><path class="cls-54" d="M59.46,290.49s1.75,17,2.66,22.82c1.07,6.8,1.43,12.43,1.72,15.95.38,4.43.45,26.22.71,27.51s-5.8.36-5.8.36-3-28.47-4.09-33.19c-1-4.39-4.88-23.3-5.82-22.1S46.72,323.91,46,327.37,43.19,358,43.19,358s-4.82,1-6.1-.13c0,0-.59-23.37-.14-29.87.17-2.47-2.9-29.68,1-40.63C40.06,281.54,59.46,290.49,59.46,290.49Z"/><path class="cls-63" d="M25.29,292.88s1.32,1.52,2.56,1.3,6.41-16,6.46-19.16a79.36,79.36,0,0,1,1.43-9.32h0c.14.51,2,7.52,2.09,10.89s-.21,15.53-.21,15.53l4.69,1.26,15,.14,3.42-1.4s-.38-3.87-.52-6.58c-.08-1.73-.42-4.82-.33-7.83a27.25,27.25,0,0,1,.26-4.55c0-6,.4-12,.4-12q.3-4.1.42-7.68c-.66-.35-1.45-.76-2.09-1.06-2-.94-4.7-2.19-6.46-3-1-.47-2-.82-2-.82s-7-.67-7.6-.64a20.52,20.52,0,0,0-2.21.76,78.57,78.57,0,0,0-8,3.42c-1.12.8-3.49,19.88-3.6,21.21C28.7,275.78,25.29,292.88,25.29,292.88Z"/><path class="cls-64" d="M60.24,290.87a123.61,123.61,0,0,1-19.27,0v3s13.4,1.28,19.73-.56Z"/><path class="cls-59" d="M51.48,249.05s1.67,3.93,2.92,12.71c.49,3.37,1.38,9,2,14.84h0c.51,4.57,1.68,9.25,2,12.75L60,303.64l2.81-1.77c.41-.38,1-.86.81-1.38a148.62,148.62,0,0,1-3.13-17.94h0c0-.35-.09-.69-.12-1a.07.07,0,0,1,0-.05c-.17-1.44-.3-2.82-.4-4.08a12.77,12.77,0,0,1,.13-2.84c.39-6.45.58-13.26.58-13.26.21-2.78.33-5.39.41-7.81C61.1,253.46,52.28,249.29,51.48,249.05Z"/><path class="cls-59" d="M34.52,275.17c-.22,2.92-5.58,20-6.29,19.95a52.2,52.2,0,0,1-5.45-1.46s5.17-17.38,5.36-19.21c.13-1.33,2.25-21.34,3.37-22.14.65-.46,5.45-2.17,7.8-3.09l2.24-.85c.5.55,4,4.33,5.2,18.68.21,2.42-.44,7.54-.87,11.72-.46,4.46-1,7.94-1.35,11.67-.74,7.35-1.25,13.2-1.25,13.2L36,300.38c-1.19-.59-2.83-3-2.38-4.27,1.69-4.73,3.82-12.82,3.82-17,0,0-.81-10.17-1.46-12.41A63.27,63.27,0,0,0,34.52,275.17Z"/><path class="cls-16" d="M47.1,230.13s7.33-2.71,6.87,7-2.17,10.73-7,9.37-5.23-7.51-5.86-10.47S44.7,230.56,47.1,230.13Z"/><path class="cls-65" d="M42.14,240.9s0-2.6,1.06-2.84,1.64,1.26,1.64,1.26l.87,0s-.78-2.64.25-3.24,7.21-.08,8-1-.35-6.16-2-6.67-6.28-1.57-9.2,1c0,0-2.55,0-2.65,2.12S41.26,239.49,42.14,240.9Z"/><path class="cls-16" d="M44.43,237c-.33-.85-2.16-.75-2,.61s1.7,3.46,2.31,3.07S44.87,238.14,44.43,237Z"/><path class="cls-66" d="M43.4,248.73s.65-.53-.28-5.41C42.87,242,50,244.88,50,244.88S50,246,50,247c0,.48,0,1,.06,1.35a4.56,4.56,0,0,0,.26.94C50.59,250.05,46,250.62,43.4,248.73Z"/><path class="cls-24" d="M50,248.37a6.11,6.11,0,0,1-5.7-3.41A8,8,0,0,0,50,247C50,247.5,50,248,50,248.37Z"/><path class="cls-67" d="M48.29,251.26l1.3,1.74a1.58,1.58,0,0,1-2.12.27Z"/><path class="cls-67" d="M49.21,253.07S54,271.6,53,286l-1.62,2.85-1.52-3s-.41-25.8-1.73-32.87Z"/><path class="cls-66" d="M49.68,249.63l-1.39,1.63s-2.23-.43-2.89-1.6S49.68,249.63,49.68,249.63Z"/><path class="cls-68" d="M50,248.21a6.81,6.81,0,0,1-1.71,3L50,253.53l.91-4.71Z"/><path class="cls-68" d="M43.61,246.94s2.42,3.43,4.68,4.32l-1,2.59-4.79-5.79Z"/><polygon class="cls-69" points="397.75 358.96 391.83 319.55 392.97 319.37 398.9 358.78 397.75 358.96"/><polygon class="cls-69" points="390.52 358.96 384.59 319.55 385.74 319.37 391.66 358.78 390.52 358.96"/><polygon class="cls-69" points="354.88 358.96 353.74 358.78 359.66 319.37 360.81 319.55 354.88 358.96"/><path class="cls-70" d="M393.69,320l4.64-48.84a93.51,93.51,0,0,0-13-.8L377.93,320Z"/><rect class="cls-70" x="377.93" y="317.47" width="15.75" height="2.48"/><path class="cls-70" d="M367.62,318l-2.46-46.54s20.55-2.23,33.17-.31Z"/><path class="cls-71" d="M384,256.35s3.17-9.3-2.88-12.19S370,245.45,369,247.71s-.71,6.35.12,9.21.7,7.22-1.09,8.68a10.08,10.08,0,0,0-3.92,8.8c.07,3.05,12-7.82,12-7.82Z"/><path class="cls-72" d="M376,356.47s-.19,6.58.75,7,4.5-1.89,6.06-4.15-2-7.52-2.54-10.43c-.24-1.21-3-3.4-4.35-2.77a6.49,6.49,0,0,0-2.33,2.23S377,350.67,376,356.47Z"/><path class="cls-73" d="M373.54,348.32a35.89,35.89,0,0,1,1.77,4c.6,1.74.71,6.57,1.09,6.9s3.35-1.17,3.75-3-.81-5.41-2-7.3a11.57,11.57,0,0,0-2.32-2.84A3,3,0,0,0,373.54,348.32Z"/><polygon class="cls-72" points="380.22 348.86 383.42 353.53 382.81 353.95 380.34 350.34 380.22 348.86"/><path class="cls-73" d="M368.7,297.23s1.56,2.64,0,4.56-12.09,7.21-12,10.26,2,7.83,2.7,9.05,3.25,6.24,4.57,9.18,9,17,10.51,20.2.58-12.7.58-12.7l-7.68-22.51L385.3,297.8S383.13,293,368.7,297.23Z"/><path class="cls-74" d="M375.52,267.42s-5,1.1-6.95,2.26-6.36,6.46-6.36,8.74,19.18,4.42,19.18,4.42L385,296.11s9.69-2.36,10.85-4.32-3.82-15.93-4.51-18.88-4.32-4.92-8.36-5.49A27.59,27.59,0,0,0,375.52,267.42Z"/><path class="cls-16" d="M387.29,297.66s-.35,2.27.57,3.24,5.18,6.57,2.93,12.08c-2.07,5.06-6.08,5-6.08,5H378.5s1.8,9.11,1.22,15.11-3.32,19.71-3.38,20.4-2.62,2.86-3.37,1.76c0,0-.07-8.25-.48-11.37s-2.12-15.58-2.64-17.43-3.58-7.44-3.58-8-3-9.61,3.54-11.92S378.63,297.71,387.29,297.66Z"/><path class="cls-75" d="M369.88,361.58s-4.28,5-3.8,5.89,4.68,1.35,7.32.58,3.2-7.08,4.58-9.71c.58-1.09-.2-4.53-1.64-4.89a6.55,6.55,0,0,0-3.21.27S374.31,357.7,369.88,361.58Z"/><path class="cls-16" d="M373.13,353.72a36.66,36.66,0,0,1-1.14,4.21c-.62,1.73-3.57,5.55-3.49,6.05s3.35,1.2,4.79,0,2.77-4.71,3.07-6.91a12,12,0,0,0,0-3.67A3,3,0,0,0,373.13,353.72Z"/><polygon class="cls-75" points="377.98 358.35 377.53 363.99 376.8 363.93 377.14 359.57 377.98 358.35"/><path class="cls-74" d="M390.79,313c-2,5.12-6.08,5-6.08,5H378.5s-2.59-4.1-8.93-4.81a18.57,18.57,0,0,0-4.78.12h-.07c-8.42,1.25-6.79,4.34-6.77,4.43a15.26,15.26,0,0,1-1.26-5.9c.81-6.66,10.45-8.06,12-10s0-4.56,0-4.56c14.43-4.26,16.6.57,16.6.57.64-.08,2.26-1,2.95-1,0,0,.72,1.57,1.23,3C389.93,301,392.91,307.41,390.79,313Z"/><polygon class="cls-76" points="384.8 276.26 386.93 296.11 358.83 296.11 356.69 276.26 384.8 276.26"/><rect class="cls-76" x="384.48" y="294.33" width="4.69" height="1.79"/><rect class="cls-77" x="339.46" y="296.11" width="89.51" height="2.7"/><path class="cls-16" d="M378.63,245.75s6.3,1.86,5.4,10.6-5,8.29-5.4,8.36-5.27.38-6.81-10.22S378.63,245.75,378.63,245.75Z"/><path class="cls-16" d="M381.64,263.1a14.26,14.26,0,0,0,.22,4.69c.55,1.8-7.34,1.85-7.33.37,0-1.68.81-3.08.05-6S381.64,263.1,381.64,263.1Z"/><path class="cls-71" d="M377,249.65s3.42,5.44,7,6.7c0,0,2-9.13-6.15-11s-6.85,9.22-6.25,12.19A24,24,0,0,1,377,249.65Z"/><path class="cls-24" d="M375.51,263.47a4.27,4.27,0,0,0,5.68.27s-.26,1.66-2.55,1.87A3.19,3.19,0,0,1,375.51,263.47Z"/><path class="cls-78" d="M372.42,248.83s1.8-3.49,4.84-3.65a6,6,0,0,1,4.85,2.49,5.17,5.17,0,0,0-4.84-3C373.61,244.7,372.42,248.83,372.42,248.83Z"/><path class="cls-16" d="M382.66,267.37s-.11,6.05-4.9,6.23-3.8-5.8-3.8-5.8A16.69,16.69,0,0,1,382.66,267.37Z"/><rect class="cls-79" x="426.98" y="298.82" width="1.99" height="68.22"/><rect class="cls-79" x="339.46" y="298.82" width="1.99" height="68.22"/><path class="cls-30" d="M266.48,310.75a19,19,0,0,0-2.88,3.38c-1.37,2.05-5,2.16-5.15,5s4.93,2.88,7.6,2,3.07-3.64,4.69-4.32,2.45-1.24,2.33-2.57a16.46,16.46,0,0,0-1-3.5,11.71,11.71,0,0,1-1.6.39A13.44,13.44,0,0,1,266.48,310.75Z"/><path class="cls-80" d="M284.78,235s-1,6.08-1.84,10.1h0a24.42,24.42,0,0,1-.83,3.33,47.13,47.13,0,0,1-4.5,5c-4.13,4.25-9.58,9.6-9.58,9.6L265.9,259s4.84-5.67,8.12-9.46c1.52-1.75,2.71-3.1,2.92-3.29.69-.62,1.49-6.66,2.6-11.65a20,20,0,0,1,3.37-7.73Z"/><path class="cls-16" d="M277.61,253.4c-4.13,4.25-9.58,9.6-9.58,9.6L265.9,259s4.84-5.67,8.12-9.46A6.87,6.87,0,0,1,277.61,253.4Z"/><path class="cls-30" d="M304.06,309.09s1.4,1.55,2.22,2.48,4,2.62,4,5.41c0,3-2.34,2.76-4.44,2.65a5.78,5.78,0,0,1-4.68-3.27c-.89-1.72-3.24-2.17-3.41-3.55s1.09-3.86,1.09-3.86Z"/><path class="cls-81" d="M299.13,306.37l-.27,2.58s4.38,1.91,5.2.14l-.19-2.3Z"/><path class="cls-81" d="M266.72,308.89l-.24,1.86a9.18,9.18,0,0,0,5.57-.08l.06-1.66Z"/><path class="cls-80" d="M304.3,262.17c.15.54-28,0-28,0s7.8-5.67,8.3-7.19-2-10.61-2.3-13.58c-.26-2.36-.92-13,.65-14.58s7.51-3.47,7.51-3.47l8.56.32a13.58,13.58,0,0,1,2.43.77c1,.47,6.79,2.52,7.73,5.41S303.37,242,303.37,242s0,.41,0,1.1h0c0,.91-.07,2.3-.1,3.8-.05,1.95-.08,4.09-.08,5.66A56.31,56.31,0,0,0,304.3,262.17Z"/><path class="cls-74" d="M304.3,262.17s3.84,5.63,3.89,9.48-1.42,14.51-1.53,16.62S304.57,308,304.57,308s-1.54,1.43-6.14-.36c0,0-1-16.69-1.12-18.48s-.11-10-1.14-11.21-7.26-4.93-8.07-5.63-15,2.67-16.44,3.06c-3.85,1-2.1,7.67-1.25,10.67,1.43,5,2.67,23.11,2.67,23.11s-2.74,1.16-7.32.18c0,0-9-32.68-9.28-35.93s-.43-8.6,21.73-12.68Z"/><path class="cls-16" d="M292.77,204.73s-7.44-1.67-5.74,7.69,3.49,10.09,8,8.16,4.09-7.94,4.31-10.88S295.14,204.84,292.77,204.73Z"/><path class="cls-16" d="M290.8,225.75s3.29,3.5,8.5.32c0,0-1.16-7.57-.55-11.25s-6.79,5.71-6.79,5.71.16.4.17.9a11.58,11.58,0,0,1-.07,1.5C291.9,224.16,291.52,225.45,290.8,225.75Z"/><path class="cls-16" d="M296.76,211.18a1,1,0,0,1,1.86.11c.13,1.23-.74,3.41-1.36,3.19S296.62,212.31,296.76,211.18Z"/><path class="cls-82" d="M299,214.5s-.19-2.94-1.27-3-1.24,1.1-1.24,1.1l-1.09.2s.35-2.58-.73-3-7,1.42-7.83.66-.46-6,1.1-6.72,5.88-2.32,9-.18c0,0,2.46-.28,2.82,1.7S299.62,213,299,214.5Z"/><path class="cls-24" d="M292.06,222.93c5.37-1.65,5.77-4.89,5.78-4.94-1.77,3-5.71,3.44-5.71,3.44A11.58,11.58,0,0,1,292.06,222.93Z"/><path class="cls-16" d="M301.5,224.48s-3.94,7.83-10.29,7.32-1.08-8.38-.79-8.45S296.93,221.73,301.5,224.48Z"/><path class="cls-80" d="M273,261.78s19.47,2.39,31.26.39l-22.54-2.81S281.63,259.93,273,261.78Z"/><path class="cls-16" d="M287.6,258.47l-1.45.73s.33,2.31,1.12,3l1.63-.42S288.56,259.26,287.6,258.47Z"/><path class="cls-80" d="M310.13,253.75c-.29.34-4.12,1.88-8.44,3.54h0c-5.91,2.28-12.58,4.43-12.58,4.43l-1.51-3.25s7-3.79,11.69-6.45c2.23-1.26,3.95-2.26,4.2-2.49.75-.73.95-1.88.39-3.9s-1.84-11.3-2-12.38.36-4,3.07-4.12a8,8,0,0,1,4.08.62s.68.28,1.19,6.85S310.81,253,310.13,253.75Z"/><path class="cls-83" d="M303.34,243.13h0c0,.91-.07,2.3-.1,3.8a19,19,0,0,1-1.09-11.73C301.86,237,303.32,243,303.34,243.13Z"/><path class="cls-83" d="M282.94,245.08h0a24.42,24.42,0,0,1-.83,3.33,34.46,34.46,0,0,1-.09-10A54.89,54.89,0,0,0,282.94,245.08Z"/><path class="cls-16" d="M301.69,257.29h0c-5.91,2.28-12.79,4.5-12.79,4.5l-1.3-3.32s7-3.79,11.69-6.45C299.29,252,301,252.85,301.69,257.29Z"/><polygon class="cls-84" points="287.18 261.98 259.51 261.57 273.48 268.67 287.18 261.98"/><polygon class="cls-85" points="273.48 268.67 287.18 263.36 287.18 261.98 272.39 267.32 273.48 268.67"/><path class="cls-16" d="M286.46,259.25s-1.73-.26-2.92-.54c-.93-.22-3.23.08-3.81.67s-2.45,4.73-2.8,5,.18.84.8.54c0,0,.57,1.81,2,1.14s2.35-2.16,3.08-2.42,5-1.57,5-1.57S287.56,258.81,286.46,259.25Z"/><path class="cls-16" d="M280.15,259.11a12.13,12.13,0,0,0-1.4.78c-.29.23-1.46,1.11-1.75,1.32s.43.8,2.53-.11S280.15,259.11,280.15,259.11Z"/><polygon class="cls-86" points="273.48 268.67 265.25 246.2 238.71 246.63 246.56 267.34 273.48 268.67"/><path class="cls-79" d="M256.76,256.14c.81,1.62.56,3.38-.55,3.94s-2.67-.31-3.48-1.93-.56-3.38.55-3.94S256,254.52,256.76,256.14Z"/></g></g></g></svg>