<svg xmlns="http://www.w3.org/2000/svg" xmlns:xlink="http://www.w3.org/1999/xlink" viewBox="0 0 450 326.74"><defs><style>.cls-1,.cls-10{fill:none;}.cls-2{isolation:isolate;}.cls-3{fill:#fdb81c;}.cls-4{clip-path:url(#clip-path);}.cls-5{fill:#fbc39d;}.cls-6{fill:#f9ac7f;}.cls-7{fill:#3b1000;}.cls-8{fill:#e1926a;opacity:0.27;mix-blend-mode:multiply;}.cls-9{fill:#150d03;}.cls-10{stroke:#e58b5e;stroke-linecap:round;stroke-linejoin:round;stroke-width:1.95px;}.cls-11{opacity:0.34;fill:url(#Degradado_sin_nombre_48);}.cls-12{fill:#bfbfbf;}.cls-13{fill:#d8d8d8;}.cls-14{fill:#f9f9f9;}.cls-15{fill:#1e1c1c;}</style><clipPath id="clip-path"><path class="cls-1" d="M241.82,49.7s-6.48-8.59-19.45-8.59a25.09,25.09,0,0,0-19.44,8.59c-25,23.5-50,83.66-19.45,100.83s38.89,35.26,38.89,35.26,8.34-18.08,38.9-35.26S266.82,73.2,241.82,49.7Z"/></clipPath><linearGradient id="Degradado_sin_nombre_48" x1="225" y1="312.95" x2="225" gradientUnits="userSpaceOnUse"><stop offset="0" stop-color="#fff" stop-opacity="0.8"/><stop offset="0.21" stop-color="#fff" stop-opacity="0.57"/><stop offset="0.44" stop-color="#fff" stop-opacity="0.33"/><stop offset="0.64" stop-color="#fff" stop-opacity="0.15"/><stop offset="0.79" stop-color="#fff" stop-opacity="0.04"/><stop offset="0.88" stop-color="#fff" stop-opacity="0"/></linearGradient></defs><g class="cls-2"><g id="Layer_2" data-name="Layer 2"><g id="OBJECTS"><path class="cls-3" d="M253,164.13H194.64s-47.38,17.65-47.38,70v30.59H300.34V234.14C300.34,181.78,253,164.13,253,164.13Z"/><path class="cls-3" d="M296,98.1C284.66,44.75,256.38,5,222.37,0c-34,5-62.28,44.75-73.58,98.1s43.85,71.42,43.85,71.42l29.73,16.27,29.74-16.27S307.26,151.44,296,98.1Z"/><g class="cls-4"><path class="cls-5" d="M231.5,128.45H213.25c-3.69,0-6.67,3.35-6.67,7.49v32.12c0,9.79,7.07,17.73,15.79,17.73s15.8-7.94,15.8-17.73V135.94C238.17,131.8,235.19,128.45,231.5,128.45Z"/><path class="cls-6" d="M206.17,145s1.27,9.3,15.79,9.3,15.8-9.3,15.8-9.3Z"/><path class="cls-6" d="M267.77,83.42a10.38,10.38,0,1,0,10,10.38A10.19,10.19,0,0,0,267.77,83.42Z"/><path class="cls-6" d="M177,83.42A10.38,10.38,0,1,0,187,93.8,10.18,10.18,0,0,0,177,83.42Z"/><path class="cls-5" d="M218.74,148l-.07.07c1.22.11,2.45.17,3.71.17h0a44.93,44.93,0,0,0,10.89-1.34.36.36,0,0,0,0-.09,44.21,44.21,0,0,0,33.59-42.78V52.36C266.9,28,247,31.87,222.38,31.87h0c-24.6,0-44.53-3.88-44.53,20.49v51.69A44.28,44.28,0,0,0,218.74,148Z"/><path class="cls-6" d="M223.25,115h-2.57a5.07,5.07,0,0,1-5-5.7L216.94,97a5.07,5.07,0,0,1,5-4.44h0A5.06,5.06,0,0,1,227,97l1.29,12.36A5.07,5.07,0,0,1,223.25,115Z"/><path class="cls-7" d="M190.85,42.12S188.52,57.89,224.36,67c0,0-7-7-7.41-10.25,0,0,5.18,8.75,28.55,12,0,0-10.64-6.52-10-10.23,0,0,16.08,14.37,31.38,10.1L250.78,48.37a39.85,39.85,0,0,0-47-11.82Z"/><path class="cls-8" d="M167.48,106.53s17.26-36.72,53.9-36.79,54,34.62,54,34.62-8.53-86.84-54.52-86.84S167.48,106.53,167.48,106.53Z"/><path class="cls-9" d="M184.26,77.46h23.54a9.74,9.74,0,0,1,9.74,9.74V96a14.17,14.17,0,0,1-14.17,14.17H191.92A16.35,16.35,0,0,1,175.57,93.8V86.16A8.69,8.69,0,0,1,184.26,77.46Z"/><path class="cls-9" d="M242.61,77.46h11.46a14.17,14.17,0,0,1,14.17,14.17v8.77a9.74,9.74,0,0,1-9.74,9.74H235a8.69,8.69,0,0,1-8.69-8.69V93.81a16.35,16.35,0,0,1,16.35-16.35Z" transform="translate(494.5 187.61) rotate(180)"/><rect class="cls-9" x="216.39" y="86.38" width="10.63" height="7.69"/><line class="cls-10" x1="214.23" y1="126.5" x2="230.52" y2="126.5"/></g><polygon class="cls-11" points="120.02 312.95 0 0 450 0 327.59 312.95 120.02 312.95"/><rect class="cls-12" x="103.09" y="309.55" width="242.77" height="17.19" rx="8.4"/><rect class="cls-13" x="120" y="198.39" width="207.57" height="128.35" rx="10.79"/><path class="cls-14" d="M223.49,281.63a16.79,16.79,0,1,1,16.79-16.79A16.8,16.8,0,0,1,223.49,281.63Z"/><path class="cls-15" d="M235.38,242.39a27.24,27.24,0,0,0-25.6,0c-8,4.27-15.5,13-7.91,30.62,0,0-4.07,13.5,8.81,10.47,0,0,2.07-.34,1.93,2.75v1.86a2.18,2.18,0,0,0,2.18,2.18h.07a2.18,2.18,0,0,0,2.18-2.18v-1.81h3.38v1.81a2.18,2.18,0,0,0,2.18,2.18h.07a2.18,2.18,0,0,0,2.18-2.18v-1.81h3.24v1.81a2.17,2.17,0,0,0,2.18,2.18h.06a2.17,2.17,0,0,0,2.18-2.18v-1.81h0v0c-.14-3.09,1.92-2.75,1.92-2.75,12.88,3,8.82-10.47,8.82-10.47C250.87,255.4,243.39,246.66,235.38,242.39ZM213,273.33a5.59,5.59,0,1,1,5.59-5.59A5.58,5.58,0,0,1,213,273.33Zm7.66,4.44a1.94,1.94,0,1,1,3.88,0c0,.49.07,1.05.07,1.71,0,1-.22,1.12-.58.94a3.24,3.24,0,0,0-2.85,0c-.36.18-.58.06-.58-.94C220.63,278.82,220.65,278.26,220.69,277.77Zm11.13-4.44a5.59,5.59,0,1,1,5.58-5.59A5.59,5.59,0,0,1,231.82,273.33Z"/></g></g></g></svg>